<svg width="1440" height="1024" viewBox="0 0 1440 1024" fill="none" xmlns="http://www.w3.org/2000/svg">
<rect width="1440" height="1024" fill="url(#paint0_linear)"/>
<path d="M36 262.667H217.333V36H36V262.667ZM36 444H217.333V308H36V444ZM262.667 444H444V217.333H262.667V444ZM262.667 36V172H444V36H262.667Z" fill="white" fill-opacity="0.15"/>
<path d="M1160 879.556H1268.44V744H1160V879.556ZM1160 988H1268.44V906.667H1160V988ZM1295.56 988H1404V852.444H1295.56V988ZM1295.56 744V825.333H1404V744H1295.56Z" fill="white" fill-opacity="0.35"/>
<path d="M1025 771.556H1133.44V636H1025V771.556ZM1025 880H1133.44V798.667H1025V880ZM1160.56 880H1269V744.444H1160.56V880ZM1160.56 636V717.333H1269V636H1160.56Z" fill="white" fill-opacity="0.13"/>
<path d="M629.5 444L629.5 381.778L604.75 381.778L604.75 444L629.5 444ZM629.5 363.111L629.5 300.889L604.75 300.889L604.75 363.111L629.5 363.111ZM629.5 282.222L629.5 220L604.75 220L604.75 282.222L629.5 282.222ZM679 444L679 419.111L654.25 419.111L654.25 444L679 444ZM679 394.222L679 369.333L654.25 369.333L654.25 394.222L679 394.222ZM679 344.444L679 319.556L654.25 319.556L654.25 344.444L679 344.444ZM679 294.667L679 269.778L654.25 269.778L654.25 294.667L679 294.667ZM679 244.889L679 220L654.25 220L654.25 244.889L679 244.889ZM580 444L580 344.444L555.25 344.444L555.25 444L580 444ZM580 319.556L580 220L555.25 220L555.25 319.556L580 319.556ZM481 444L530.5 444L530.5 220L481 220L481 444Z" fill="white" fill-opacity="0.42"/>
<path d="M596.111 555L629 555L629 473L481 473L481 637L596.111 637L596.111 555ZM497.444 505.8L497.444 489.4L513.889 489.4L513.889 505.8L497.444 505.8ZM530.333 505.8L530.333 489.4L546.778 489.4L546.778 505.8L530.333 505.8ZM563.222 505.8L563.222 489.4L579.667 489.4L579.667 505.8L563.222 505.8ZM596.111 505.8L596.111 489.4L612.556 489.4L612.556 505.8L596.111 505.8ZM497.444 538.6L497.444 522.2L513.889 522.2L513.889 538.6L497.444 538.6ZM530.333 538.6L530.333 522.2L546.778 522.2L546.778 538.6L530.333 538.6ZM563.222 538.6L563.222 522.2L579.667 522.2L579.667 538.6L563.222 538.6ZM596.111 538.6L596.111 522.2L612.556 522.2L612.556 538.6L596.111 538.6ZM497.444 620.6L497.444 555L513.889 555L513.889 571.4L530.333 571.4L530.333 555L546.778 555L546.778 571.4L563.222 571.4L563.222 555L579.667 555L579.667 620.6L497.444 620.6ZM563.222 604.2L563.222 587.8L546.778 587.8L546.778 604.2L563.222 604.2ZM530.333 604.2L530.333 587.8L513.889 587.8L513.889 604.2L530.333 604.2Z" fill="white" fill-opacity="0.24"/>
<defs>
<linearGradient id="paint0_linear" x1="0" y1="0" x2="1157.16" y2="1279.74" gradientUnits="userSpaceOnUse">
<stop stop-color="#A589F8"/>
<stop offset="1" stop-color="#5538AD"/>
</linearGradient>
</defs>
</svg>
